IKResults C03
version=1
nRows=22
nColumns=24
inDegrees=yes

Units are S.I. units (second, meters, Newtons, ...)
If the header above contains a line with 'inDegrees', this indicates whether rotational values are in degrees (yes) or radians (no).

endheader
time	pelvis_tilt	pelvis_list	pelvis_rotation	pelvis_tx	pelvis_ty	pelvis_tz	hip_flexion_r	hip_adduction_r	hip_rotation_r	knee_angle_r	ankle_angle_r	subtalar_angle_r	mtp_angle_r	hip_flexion_l	hip_adduction_l	hip_rotation_l	knee_angle_l	ankle_angle_l	subtalar_angle_l	mtp_angle_l	lumbar_extension	lumbar_bending	lumbar_rotation
     12.39000000	     -8.37662554	      4.08863379	    -79.10040879	     -0.27920240	      0.92485186	      0.30878915	     28.33516735	      6.79221681	     -5.40132981	    -16.17245007	     -2.35047101	    -17.77891825	      0.00000000	      5.31667191	    -12.13354014	      7.55251001	    -58.96418331	     -9.07070502	      2.59551260	      0.00000000	     -5.21629082	      9.49704277	    -11.29654662
     12.40000000	     -8.42869065	      3.93750991	    -79.12709142	     -0.28104028	      0.92715191	      0.32205257	     27.20301674	      7.15024620	     -6.09545190	    -15.97183756	     -1.41161514	    -16.98098860	      0.00000000	      7.32659517	    -11.89000651	      8.05128197	    -61.97276476	     -8.36587946	     -0.01340157	      0.00000000	     -5.52104867	      9.42723955	    -11.60418416
     12.41000000	     -8.43345939	      3.71717769	    -79.15269285	     -0.28266219	      0.92944010	      0.33522585	     25.97448161	      7.46354451	     -6.74995822	    -15.75229647	     -0.24504106	    -16.05648792	      0.00000000	      9.25602428	    -11.53494963	      8.53646430	    -64.83528085	     -7.43656225	     -2.70883649	      0.00000000	     -5.89675729	      9.39333513	    -11.97007202
     12.42000000	     -8.38038932	      3.57003698	    -79.11735082	     -0.28424548	      0.93167118	      0.34794572	     24.81306939	      7.71751917	     -7.13802896	    -15.48207726	      0.73751611	    -15.27894468	      0.00000000	     11.25991374	    -11.06351016	      8.99799886	    -67.36472053	     -6.26862773	     -5.37342104	      0.00000000	     -6.20646756	      9.32666156	    -12.35114679
     12.43000000	     -8.36273643	      3.36059262	    -79.05518142	     -0.28557678	      0.93381708	      0.36076884	     23.53696099	      8.03036352	     -7.39534670	    -15.13479870	      1.81862389	    -14.66558644	      0.00000000	     13.26765931	    -10.62706091	      9.39240249	    -69.69710983	     -5.30882642	     -8.13393306	      0.00000000	     -6.55253545	      9.24236436	    -12.82385979
     12.44000000	     -8.37088867	      3.22993337	    -78.86742533	     -0.28670188	      0.93571730	      0.37319760	     22.38674078	      8.33853800	     -7.41123527	    -14.83681478	      2.95151106	    -13.69700410	      0.00000000	     15.47568963	    -10.14030849	      9.85560712	    -71.82855851	     -6.06513244	    -11.94397134	      0.00000000	     -6.88288417	      9.11362650	    -13.43598994
     12.45000000	     -8.28639694	      2.98129259	    -78.85110106	     -0.28788875	      0.93790859	      0.38615395	     21.05936472	      8.65306336	     -7.14018023	    -14.53254678	      3.77551843	    -13.92491014	      0.00000000	     17.36363166	     -9.63627894	     10.03879201	    -73.53290653	     -5.17735516	    -13.48233781	      0.00000000	     -7.23272455	      9.05994305	    -13.71367396
     12.46000000	     -8.23423996	      2.74736273	    -78.77570884	     -0.28901485	      0.93990848	      0.39877639	     19.81095831	      8.94426878	     -7.02559115	    -14.28009739	      4.55474220	    -13.63000462	      0.00000000	     19.31824592	     -9.15653371	     10.23803149	    -75.01521630	     -5.92292946	    -16.61056941	      0.00000000	     -7.61421055	      8.90678302	    -14.28385330
     12.47000000	     -8.02925807	      2.39641223	    -79.11820133	     -0.29050089	      0.94234918	      0.41250789	     18.17921931	      9.31615123	     -6.06654050	    -13.76940224	      4.83461599	    -13.80620247	      0.00000000	     20.72665883	     -8.69290987	      9.94942346	    -75.93430946	     -5.66631832	    -17.00460885	      0.00000000	     -8.20530539	      8.52012334	    -14.26314903
     12.48000000	     -7.98519575	      2.18180262	    -79.07895331	     -0.29160290	      0.94391967	      0.42482052	     17.06767036	      9.57885796	     -6.18572117	    -13.70350380	      5.93544801	    -13.81781326	      0.00000000	     22.63640261	     -8.25554178	     10.00841059	    -76.89558967	     -5.62547031	    -19.83737681	      0.00000000	     -8.49647571	      8.52493525	    -14.61273469
     12.49000000	     -7.84282745	      1.85926076	    -79.44113615	     -0.29307697	      0.94590215	      0.43818171	     15.66212750	      9.89982000	     -5.85767671	    -13.44704943	      6.38603175	    -13.88193951	      0.00000000	     24.04383102	     -7.97147287	      9.54765212	    -77.29020447	     -5.03756027	    -20.43616209	      0.00000000	     -9.02995382	      8.33995719	    -14.50979100
     12.50000000	     -7.64372076	      1.56478427	    -79.80297585	     -0.29453118	      0.94762664	      0.45132376	     14.37125282	     10.13663859	     -5.37565315	    -13.38367048	      7.04386308	    -13.95069947	      0.00000000	     25.39245413	     -7.61800803	      9.09812137	    -77.41229473	     -4.51645819	    -21.02173462	      0.00000000	     -9.51137115	      8.01620876	    -14.40100901
     12.51000000	     -7.32914103	      1.22641413	    -80.39282603	     -0.29623067	      0.94934128	      0.46482508	     12.96095546	     10.28162155	     -4.84105873	    -13.29745210	      7.27095133	    -13.92545194	      0.00000000	     26.49079360	     -7.32812820	      8.32055849	    -77.14604157	     -4.34984052	    -21.16613579	      0.00000000	    -10.04655497	      7.48158235	    -14.33343590
     12.52000000	     -7.11595418	      0.96993890	    -80.81677158	     -0.29761526	      0.95036419	      0.47738354	     11.88680371	     10.42186906	     -4.49580149	    -13.51785368	      8.48435162	    -13.84100402	      0.00000000	     27.88005832	     -7.03022024	      7.72026802	    -76.87131155	     -3.50547222	    -21.76252252	      0.00000000	    -10.55488363	      7.24348079	    -13.94814361
     12.53000000	     -6.86840924	      0.66940670	    -81.32687731	     -0.29908924	      0.95142420	      0.49029732	     10.73452750	     10.49676262	     -4.35642875	    -13.72349935	      8.76786319	    -13.68723439	      0.00000000	     28.98447858	     -6.80873393	      6.95202356	    -76.15870182	     -3.29162630	    -21.86361566	      0.00000000	    -11.12374777	      6.76387921	    -13.86832928
     12.54000000	     -6.62491110	      0.37789124	    -81.89580613	     -0.30042782	      0.95230656	      0.50331024	      9.47540898	     10.65922105	     -3.50599619	    -13.75101055	     10.08891212	    -13.51809655	      0.00000000	     29.96216038	     -6.64354892	      6.13242565	    -75.10292878	     -2.24838004	    -22.26545611	      0.00000000	    -11.58352039	      6.50233581	    -13.39299194
     12.55000000	     -6.18221129	      0.10879961	    -82.42098538	     -0.30165464	      0.95237866	      0.51612353	      8.69043668	     10.22854638	     -4.63639535	    -14.70816510	     12.35871421	    -10.49980635	      0.00000000	     30.88986460	     -6.25895706	      5.20818720	    -73.84156996	     -1.13409584	    -22.65886001	      0.00000000	    -12.18272948	      5.95980952	    -12.89909537
     12.56000000	     -6.15567633	     -0.14109010	    -82.95697259	     -0.30289390	      0.95308770	      0.52891986	      7.21747483	     10.81674220	     -1.95943654	    -14.25548231	     12.96177852	    -11.69433994	      0.00000000	     31.79636345	     -6.35377610	      4.44472970	    -72.24519312	     -1.23647888	    -22.58170579	      0.00000000	    -12.50115043	      5.81233557	    -12.79835540
     12.57000000	     -5.96585939	     -0.35790146	    -83.46970614	     -0.30398286	      0.95315880	      0.54167046	      6.14324838	     10.90250483	     -1.17214692	    -14.47188349	     13.34087340	    -12.24939434	      0.00000000	     32.60100859	     -6.24443173	      3.69874250	    -70.48989199	     -0.75867742	    -22.93546072	      0.00000000	    -12.85695191	      5.48885931	    -12.55449506
     12.58000000	     -5.78751979	     -0.49787253	    -83.97668375	     -0.30493287	      0.95298289	      0.55436478	      5.17193092	     10.95706345	     -0.37884574	    -14.73196698	     14.04158248	    -12.72849910	      0.00000000	     33.38203893	     -6.20429020	      2.83740816	    -68.33092943	     -0.46981001	    -23.40011993	      0.00000000	    -13.23524634	      5.43374560	      3.99481253
     12.59000000	     -5.64940659	     -0.66866931	    -84.44847554	     -0.30576598	      0.95265266	      0.56724063	      4.12561236	     11.02586667	      0.32422600	    -14.90876659	     14.28037882	    -12.81222253	      0.00000000	     34.09536535	     -6.17461438	      2.01618411	    -66.15514897	     -0.33459571	    -23.58231231	      0.00000000	    -13.54636279	      5.07343071	      4.18308000
     12.60000000	     -5.51899638	     -0.74312248	    -85.03967517	     -0.30665779	      0.95208665	      0.57984981	      3.25015599	     11.05671664	      0.95718755	    -15.13488814	     15.39383454	    -13.09522559	      0.00000000	     34.77136980	     -6.20461851	      1.16139581	    -63.69765495	      0.04226863	    -24.31460867	      0.00000000	    -13.77257671	      4.84966707	      5.32090528
